<?xml version="1.0" standalone="no"?>
<!DOCTYPE svg PUBLIC "-//W3C//DTD SVG 20010904//EN"
 "http://www.w3.org/TR/2001/REC-SVG-20010904/DTD/svg10.dtd">
<svg version="1.0" xmlns="http://www.w3.org/2000/svg"
 width="400.000000pt" height="400.000000pt" viewBox="0 0 400.000000 400.000000"
 preserveAspectRatio="xMidYMid meet">

<g transform="translate(0.000000,400.000000) scale(0.100000,-0.100000)"
fill="#000000" stroke="none">
<path d="M0 2000 l0 -2000 2000 0 2000 0 0 2000 0 2000 -2000 0 -2000 0 0
-2000z m2077 1438 c4 -7 87 -224 184 -483 l176 -470 313 -5 c264 -4 314 -7
322 -20 11 -20 348 -924 362 -973 19 -67 17 -67 -338 -67 l-311 0 -435 -480
c-255 -282 -445 -482 -458 -486 -15 -4 -29 -1 -36 7 -7 8 -91 227 -187 486
l-174 473 -300 0 c-165 0 -305 4 -312 8 -7 4 -19 23 -27 42 -39 96 -356 960
-356 972 0 36 18 38 336 38 l313 0 333 368 c183 202 375 414 427 472 52 58
101 111 110 118 19 15 47 16 58 0z"/>
<path d="M1675 2934 c-193 -212 -363 -401 -378 -420 l-29 -34 271 0 c270 0
271 0 284 -22 8 -13 47 -113 87 -222 l74 -200 59 65 c33 35 117 128 188 205
l128 141 -162 437 c-89 239 -164 436 -167 436 -3 0 -163 -174 -355 -386z"/>
<path d="M613 2373 c2 -10 71 -196 152 -413 81 -217 152 -407 157 -422 l10
-28 287 0 288 0 175 193 c96 105 189 208 206 228 l31 35 -78 210 -78 209 -578
3 c-547 2 -577 1 -572 -15z"/>
<path d="M2239 2188 c-101 -111 -192 -212 -202 -225 -18 -23 -17 -26 61 -235
l80 -213 576 -3 c317 -1 576 1 576 6 0 7 -192 529 -296 805 l-26 67 -292 0
-292 0 -185 -202z"/>
<path d="M1799 1704 c-85 -93 -171 -187 -191 -209 l-36 -40 159 -430 c88 -236
163 -433 167 -437 4 -4 132 128 283 295 152 166 324 355 383 420 l108 117
-270 0 c-204 0 -272 3 -280 13 -6 6 -46 108 -89 226 l-80 214 -154 -169z"/>
</g>
</svg>
