<?xml version="1.0" standalone="no"?>
<!DOCTYPE svg PUBLIC "-//W3C//DTD SVG 20010904//EN"
 "http://www.w3.org/TR/2001/REC-SVG-20010904/DTD/svg10.dtd">
<svg version="1.0" xmlns="http://www.w3.org/2000/svg"
 width="400.000000pt" height="400.000000pt" viewBox="0 0 400.000000 400.000000"
 preserveAspectRatio="xMidYMid meet">

<g transform="translate(0.000000,400.000000) scale(0.100000,-0.100000)"
fill="#000000" stroke="none">
<path d="M2119 3393 c-11 -27 -34 -124 -45 -188 -3 -16 -9 -39 -14 -50 -5 -11
-11 -33 -14 -50 -11 -66 -19 -91 -34 -102 -12 -10 -76 -13 -243 -13 l-227 0
-6 -27 c-3 -16 -12 -57 -19 -93 -7 -36 -16 -72 -19 -80 -3 -8 -11 -40 -17 -70
-18 -82 -34 -144 -38 -150 -3 -3 -110 -7 -240 -10 l-235 -5 -29 -115 c-15 -63
-33 -135 -38 -160 -34 -150 -43 -189 -51 -220 -5 -19 -21 -87 -35 -150 -24
-110 -36 -159 -55 -225 -4 -16 -15 -64 -25 -105 -29 -134 -36 -164 -45 -200
-6 -19 -17 -66 -25 -105 -9 -38 -20 -88 -26 -110 -18 -67 -27 -107 -44 -185
-16 -79 -30 -135 -46 -186 -5 -17 -9 -36 -9 -43 0 -9 161 -11 728 -7 648 3
818 9 897 30 11 2 54 12 95 21 72 16 112 27 155 45 11 5 54 21 95 36 145 53
433 211 448 247 2 4 8 7 14 7 6 0 27 14 47 31 20 17 59 49 86 72 221 182 421
469 504 722 63 193 87 404 60 537 -25 130 -32 157 -57 223 -32 89 -93 200
-140 256 -158 192 -382 334 -627 397 -22 6 -59 15 -83 22 -53 14 -311 29 -495
30 l-137 0 -11 -27z m551 -171 c70 -13 180 -48 248 -78 29 -13 55 -24 57 -24
2 0 42 -25 87 -55 225 -148 348 -334 397 -601 44 -239 -56 -585 -236 -821
-110 -144 -264 -294 -382 -372 -20 -13 -38 -27 -41 -30 -21 -26 -279 -163
-375 -200 -33 -13 -69 -27 -80 -31 -141 -59 -368 -89 -680 -89 -104 0 -342 -6
-528 -13 -234 -8 -341 -8 -348 -1 -7 7 -1 48 20 134 16 68 41 176 55 239 15
63 31 131 36 150 5 19 21 87 35 150 24 110 36 158 55 225 4 17 15 66 25 110 9
44 20 96 25 115 10 39 22 93 45 195 9 39 21 89 28 113 l11 42 138 0 c76 0 138
-2 138 -4 0 -3 -9 -42 -21 -88 -11 -46 -25 -101 -29 -123 -5 -22 -13 -58 -19
-80 -6 -22 -17 -69 -24 -105 -23 -106 -77 -333 -88 -366 -5 -17 -9 -40 -9 -52
0 -12 -4 -30 -9 -40 -5 -9 -14 -39 -20 -67 -6 -27 -18 -84 -27 -125 -9 -41
-20 -83 -25 -92 -5 -10 -9 -31 -9 -48 l0 -30 416 0 c386 0 565 8 639 29 17 5
50 14 75 21 78 21 182 60 260 97 70 34 179 98 190 112 3 3 23 19 45 35 80 58
265 263 265 295 0 5 4 11 9 13 14 5 98 188 116 253 9 33 21 74 26 91 5 17 9
74 9 127 0 312 -188 576 -510 715 -50 22 -148 36 -290 41 l-145 6 1 25 c1 14
9 51 18 83 9 32 16 64 16 72 0 7 5 26 10 40 l10 26 168 -4 c92 -3 192 -9 222
-15z m-196 -413 c22 -6 59 -15 81 -21 85 -24 179 -81 258 -160 42 -42 77 -82
77 -88 0 -7 8 -24 19 -38 22 -33 45 -104 62 -194 13 -71 5 -153 -28 -263 -17
-58 -84 -205 -93 -205 -3 0 -13 -15 -22 -32 -21 -44 -148 -179 -212 -225 -28
-21 -59 -45 -69 -54 -20 -18 -140 -83 -174 -93 -18 -6 -23 -1 -33 31 -6 21
-15 47 -20 58 -4 11 -20 61 -36 110 -15 50 -31 94 -36 100 -4 5 -8 19 -8 31 0
13 -4 26 -10 29 -16 10 -12 55 5 55 8 0 23 4 33 9 9 5 51 25 92 45 101 48 182
125 223 214 27 60 31 78 31 162 1 87 -1 99 -26 137 -37 57 -63 79 -128 110
l-55 26 -375 5 c-207 2 -378 9 -381 13 -3 5 8 63 25 129 l30 120 364 0 c229 0
380 -4 406 -11z m-162 -453 c75 -41 97 -120 58 -200 -19 -38 -85 -96 -109 -96
-6 0 -19 -4 -29 -9 -39 -20 -141 -30 -333 -31 -112 0 -205 -2 -207 -4 -2 -2
-10 -33 -18 -67 -8 -35 -17 -72 -20 -81 -5 -17 7 -18 156 -18 144 0 161 -2
166 -17 3 -10 9 -27 14 -38 4 -11 15 -47 25 -80 10 -33 22 -64 27 -69 4 -6 8
-19 8 -31 0 -12 4 -25 8 -30 10 -12 59 -169 64 -204 2 -19 -3 -27 -22 -32 -14
-4 -186 -7 -382 -8 -351 -1 -358 -1 -358 19 0 22 18 104 30 135 4 11 13 47 20
80 18 90 41 186 51 220 5 17 20 82 34 145 14 63 30 131 35 150 5 19 16 67 25
105 18 81 35 155 41 173 3 9 79 12 338 12 334 0 336 0 378 -24z"/>
</g>
</svg>
